<svg xmlns="http://www.w3.org/2000/svg" id="crop-monitoring-via-mobile-device" viewBox="0 0 6000 4000">
  <ellipse cx="3003.18" cy="3668.51" rx="748.93" ry="151.49" style="fill:#19767b"></ellipse>
  <path d="M5013.54,2390.69H1606c-38.6-66.17-58.59-145.16-62.49-222.84a554.3,554.3,0,0,1,4.81-106.61c25.87-179.07,153.89-331.87,339.82-302.34-11.37-155.92-39.93-290.28,59.33-430.4A466.43,466.43,0,0,1,2080,1203.28c126.29-79.59,287.21-99.06,433.6-56.56,29.18,8.48,58.44,19.34,87.86,30.53,75.58,28.77,152.32,59.82,232.22,58.69,181.65-2.57,287.08-188.59,452.48-235.07,84.33-23.69,145.33-1.21,210.2,50.69,0,0,0,0,.07.06,96,76.81,178.51-15.21,250.38-76C3826.68,908,3907.55,869,4007,925.8c140.92,80.47,212.75,231.21,298.05,361.94,40.68,62.34,87.67,119.47,133.33,177.36,57.83,73.3,113.54,147.8,151.61,235.48a1379.64,1379.64,0,0,1,69.24,200.26c26.51,101.39,41.28,206.16,41.3,309.44C4840.38,2210.28,5024.17,2219.54,5013.54,2390.69Z" style="fill:#a0d5fd"></path>
  <path d="M3152,1729.2s-163.83,114.55-295.79-17.42c-220.66,52.23-424.85-111.51-396.4-308.2-204.32,0-318.2-104.08-379.82-200.3,126.28-79.59,287.21-99.07,433.6-56.56,29.18,8.47,58.44,19.33,87.85,30.52,6.66,60,31.8,134.79,113.16,154.69-32.94,84,32.92,186,195.75,218.94C2910.34,1689.19,3152,1729.2,3152,1729.2Z" style="fill:#d2ebfd"></path>
  <path d="M2801.88,1745.09c-2.86.17-6.41.15-10.46.27s-8.68.1-13.74.19c-10.14,0-22.1-.12-35.25-.68s-27.52-1.5-42.55-2.81-29.33-2.89-42.41-4.56-24.89-3.57-34.87-5.32c-19.94-3.51-32.46-6.7-32.46-6.7s2.5,2,7.41,5.24a189.89,189.89,0,0,0,21.63,12,231.34,231.34,0,0,0,78.77,21.45,227.88,227.88,0,0,0,45.17-.59,233.72,233.72,0,0,0,36.13-7.06c5-1.5,9.54-2.81,13.44-4.28s7.25-2.6,9.93-3.79c5.37-2.28,8.28-3.64,8.28-3.64S2807.65,1744.87,2801.88,1745.09Z" style="fill:#d2ebfd"></path>
  <path d="M3144.7,2409.28c-279.15-9.76-517.64-15.48-718.14-18.59-346.46-5.37-579.5-2.93-712.94,0H1606c-38.6-66.17-58.59-145.16-62.49-222.84,126.87-29,412.32-67.52,569.2,121.57,244.32-115.5,319.46-149.78,397.65-16.88,196.53-113.47,553.94,26.16,623.94,118.15C3139.27,2397.16,3142.77,2403.39,3144.7,2409.28Z" style="fill:#98b03f"></path>
  <path d="M4659.22,1900.84c-92.07,35-175.85,102.27-226.33,223.44-170.42,0-121.54,161.09-79,203.61-140.79-107.63-254.68-73-254.68-13.78-56.56-22.69-154.17,28.69-229.09,76.57-55.6,35.55-98.71,69.16-103.26,69.16-10.71,0-610.23-29.09-610.23-29.09s27.52-18.48,78-40.07c84-35.89,231.61-80.42,421.88-62.79,0,0-56-240.54,284.89-196.31,39.5-254.66,251.92-450.47,474.22-382.2-33.36-105.17-16.06-201.72,22.77-284.29,57.83,73.31,113.54,147.8,151.61,235.49A1379.23,1379.23,0,0,1,4659.22,1900.84Z" style="fill:#7fc7fd"></path>
  <path d="M3211.13 2580.79a1906 1906 0 0 1-85-190.11h3.06C3149.05 2440.75 3176.43 2506.11 3211.13 2580.79ZM2910.34 2390.68c40.12 188.68 135.39 595.75 270.48 913.44l-128 4.28L2017.62 3343c-1.51.06-3 .11-4.52.15-248 8.31-636.12-85.41-742.82-338.44-55.57-131.8-53.7-318.34 32.58-437.1 75.84-104.39 282-158.65 391-76.43-.06-.06-.15-.11-.23-.18-35.93-27.13-65-61.55-87.59-100.36Z" style="fill:#19767b"></path>
  <path d="M2004 2390.68h-18.75l-591 773.06q5.76 4.68 11.7 9.21l348.65-456.06Q1879.23 2553.73 2004 2390.68ZM1251.27 2949.67l215.6-183.23 332.48-282.56c34.38-29.41 69.12-58.42 103.43-87.89a6.32 6.32 0 0 0 2.46-5.31h-19.31l-77.67 66q-280.54 238.47-561.16 476.89Q1249.07 2941.7 1251.27 2949.67ZM2402.17 2390.68H2386.3q-167.65 475.64-335.37 951.25l16.06-.54Q2234.59 2866 2402.17 2390.68ZM2084.33 2625.92q62.74-117.66 125.63-235.24h-17L1703.11 3308q7.52 1.91 15 3.7Z" style="fill:#13585c"></path>
  <path d="M5013.54,2390.68q-.59,9.39-1.95,19.44c-19.49,141.71-127.59,265.38-132,409.8-385.89-110.27-813.91-331.29-994.06-429.24Z" style="fill:#19767b"></path>
  <path d="M4927.34 2642.45c-12.1-2.7-24.17-5.6-36.2-8.61-33.58-8.41-66.92-17.78-100.11-27.59-37.58-11.11-75-22.83-112.24-34.9q-59.31-19.2-118.26-39.5-59.23-20.31-118.2-41.39-56.13-20-112.05-40.59-50-18.36-99.81-37.08-29.25-11-58.45-22.11h-41.89q37.08 14.22 74.24 28.25 47.85 18.06 95.83 35.79 54.71 20.22 109.58 40 58.52 21 117.25 41.45 59.25 20.55 118.81 40.22 57 18.75 114.3 36.29c34.55 10.49 69.23 20.56 104.14 29.77 18.94 5 38 9.76 57.08 14Q4924.3 2649.44 4927.34 2642.45ZM4932 2536c-60.59-12.93-120.47-29.18-179.9-46.65-59.67-17.53-118.91-36.49-177.86-56.31q-61-20.53-121.6-42.33h-43.91l10.53 3.85q66.11 24.12 132.73 46.76c58.12 19.76 116.53 38.68 175.33 56.32 60 18 120.41 34.8 181.51 48.61 18.59 4.2 37.33 8.25 56.19 11.8q3.07-7 6.07-14.12C4958.05 2541.44 4945 2538.75 4932 2536ZM4870.19 2417.68q-48.21-12.27-95.79-27h-48.91c13.12 4.4 26.3 8.61 39.49 12.74 65.47 20.5 132 37.79 199.44 50.68q18.26 3.49 36.6 6.51 2-7.2 3.72-14.47C4959.49 2438.73 4914.6 2429 4870.19 2417.68Z" style="fill:#13585c"></path>
  <path d="M4756.24,3259c-92.55,16-194.84-.52-285.61,2-160.35,4.47-320.67,10.72-481,16.09l-248,8.29c-180-179.73-385.85-422.46-530.47-704.57-34.7-74.68-62.08-140-82-190.11h188.32C3475.25,2580.23,3963.27,3091.43,4756.24,3259Z" style="fill:#bcd845"></path>
  <path d="M4971.06,3093.62c-14.48,49.54-57.27,93.62-102.16,122.59a280.43,280.43,0,0,1-42.81,22.85c-22.37,9.42-45.78,15.76-69.85,19.91-793-167.54-1281-678.74-1438.76-868.29h248.4C3927,2681.65,4701.34,2990.79,4971.06,3093.62Z" style="fill:#93c74b"></path>
  <path d="M4971.06,3093.62c-269.72-102.83-1044.09-412-1405.18-702.94h319.68c180.15,98,608.17,319,994.06,429.24-.26,8.75-.15,17.57.4,26.48,4.16,69.1,67.46,111.73,89,172a118.58,118.58,0,0,1,6.8,30.86A122.26,122.26,0,0,1,4971.06,3093.62Z" style="fill:#bcd845"></path>
  <path d="M3741.6,3285.36l-78.84,2.65-481.94,16.11c-135.09-317.69-230.36-724.76-270.48-913.44H3126.1a1906,1906,0,0,0,85,190.11C3355.75,2862.9,3561.64,3105.63,3741.6,3285.36Z" style="fill:#93c74b"></path>
  <rect width="79.04" height="1757.83" x="4512.76" y="1504.77" style="fill:#786765"></rect>
  <rect width="79.04" height="1757.83" x="4540.11" y="1504.77" style="fill:#a8908e"></rect>
  <rect width="79.04" height="1780.59" x="3687.77" y="1504.77" style="fill:#786765"></rect>
  <rect width="79.04" height="1780.59" x="3714.61" y="1504.77" style="fill:#a8908e"></rect>
  <path d="M4086.67 1356.43c0 1.16-.08 2.32-.15 3.48.26-1.06.53-2.12.83-3.18ZM4749.61 2162c-27-24.89-25-68.69-12.39-101-38.3-30.31-104.31-22.64-79.63 38.65 13.54 35.21 73.05 96.3 112.61 69.3A29.46 29.46 0 0 1 4749.61 2162Z" style="fill:#69a31a"></path>
  <path d="M4807.67,2123.61c3.34-7.85,9.37-16.68,16.19-23.79,7.93-31.54,4.66-93.91-40.76-86.65-22.39,6.09-37.27,27-45.88,47.76-10.4,26-12.56,56.54-1.54,82,14.42,34.42,48.58,32.76,68,3.72C4802.75,2139.78,4804.09,2131.87,4807.67,2123.61Z" style="fill:#69a31a"></path>
  <path d="M4893.46 2066.41c-25 .4-52.25 15-69.6 33.41-12 12.64-22.31 30.44-20.13 46.82 12.45 46.6 82.67 11.52 104-12.54C4934 2109.57 4940.28 2066.1 4893.46 2066.41ZM4766.38 1769c7.18-29.09 23.34-56.07 45-77.28 2.24-29.5 13-104.12-36.77-73.4-33.76 24.78-46.53 70.08-46.49 110.58A178.69 178.69 0 0 1 4766.38 1769Z" style="fill:#69a31a"></path>
  <path d="M4802.35,1701.22c-17.22,19.84-29.78,42.71-36,67.76a145.54,145.54,0,0,1,16.4,30.6c18.88-28.49,53.09-47.11,87-52.94,12.33-13.68,25.5-26.79,38-39.78,10.64-11.63,22-22.22,26-36,3.07-28.07-37.88-23.44-55.78-18.48C4848.72,1660.44,4822.57,1678.36,4802.35,1701.22Z" style="fill:#69a31a"></path>
  <path d="M4778.34,1838.62c-9.15-10.85-2.86-27.94,4.44-39-40.25-107.94-208.95-139.8-122.76-30.36,25.1-2,51.93,2.49,72.81,16.44,23.05,14.34,32.67,43.77,1.3,54.36,14.29,9.84,41.47,25.36,52.09,4.13A20.76,20.76,0,0,1,4778.34,1838.62Z" style="fill:#69a31a"></path>
  <path d="M4945.05 1773.28c-8.16-38.16-75.76-30.64-103.54-18.83-28.69 10.19-83.15 51.08-63.17 84.18 21.83 19.79 67.58-.8 92.54-9.23C4894.89 1818.66 4942.57 1802.55 4945.05 1773.28ZM4742.62 1835.85c31.75-21.34-8.05-55.31-32.67-61.18-29.47-9.73-67.09-7.3-94.39 6.3-50.2 25.93-15.08 59.64 26 65.46C4675.29 1851.44 4712.51 1851.31 4742.62 1835.85ZM4089.21 2089.94v0c-39.58-29.31-122-29.17-72.24 36.31 18.79 23.84 94.31 97.86 124.72 72.28C4119.72 2200.36 4096.29 2152 4089.21 2089.94Z" style="fill:#69a31a"></path>
  <path d="M4155.22,2180.05c-20.55-24.83-3.3-62.25,15.36-83.61-8.31-145.74-96.51-177.91-81.38-6.54,7.91,67.19,39.5,141.23,70.18,93.17A18.34,18.34,0,0,1,4155.22,2180.05Z" style="fill:#69a31a"></path>
  <path d="M4283.52 2065.27c-10.59-26.85-48.61-10.9-67.93-2.5-28.33 13.72-55.27 37.8-65.57 68.48-5.16 15.76-6.85 36.22 5.2 48.8 16.7 16.88 54.58-17 70.53-27.26C4251.91 2131.68 4289.18 2102.93 4283.52 2065.27ZM4003 1806c-1.06-8.15.9-16.51 4.73-24.45-31 19.34-57.31-58.95-58.49-81.8-37.05-14.86-74 4.9-49 45.92C3915.25 1771.94 3971.3 1831.12 4003 1806Z" style="fill:#69a31a"></path>
  <path d="M3953.8,1722.72c5,18.55,13.25,37.91,26.1,51.84,10.68,11.73,26,15.69,32.12-.48-5.75-25.49.89-50.43,13.3-74,1.95-29.81,4.67-64,6.6-93.53-.18-20.54,7.31-58.79-11.33-71.62-23.13-6.49-42.34,25.44-52.21,43.4C3946.56,1620.93,3941.42,1676,3953.8,1722.72Z" style="fill:#69a31a"></path>
  <path d="M4010.06,1751.39a74.79,74.79,0,0,0,2,22.69c20.48-28,55.35-44.6,89.61-46.19C4167.14,1590.71,4014.5,1647,4010.06,1751.39Z" style="fill:#69a31a"></path>
  <path d="M4058.33 1738.15c-27.82 11.31-73.13 49-48.94 81 11.15 8.45 26.69 2 39.35 3 14.33.14 28.9-4.44 42.35-10.5 21-9.69 62.14-34 59.09-59C4136.44 1718.39 4086 1725.66 4058.33 1738.15ZM3449.55 1755.24c16.27 18.3 41.47 32.39 66.4 29.87-7-8.25-9.07-19.26-9.41-30.16-13.1-19.45-20-41.1-24.21-64.76-9.71-2.35-17.87 1.93-26.76 4.44C3415.38 1700.68 3429.2 1735.3 3449.55 1755.24Z" style="fill:#69a31a"></path>
  <path d="M3496.84,1737.92a117.8,117.8,0,0,0,9.7,17c-.46-38,21.58-78.34,52.08-100.64C3526.1,1475,3443.37,1626.45,3496.84,1737.92Z" style="fill:#69a31a"></path>
  <path d="M3523.83,1693.61c-15,25.48-31.26,81,1.05,97.61,4.57-37.87,44.87-61.69,77.93-74.83C3650.83,1616.5,3563.9,1623.15,3523.83,1693.61Z" style="fill:#69a31a"></path>
  <path d="M3574.72 1729.67c-24.6 15-55.9 40.38-48.24 71.45 12.35 24.4 61 6.19 82-.2 22.7-8.22 46.2-20.21 63.66-37.13 31.65-30.3 30.56-67.71-20.88-59.8C3626.2 1707 3597.63 1716.47 3574.72 1729.67ZM3597.42 2097.88c13.52-16.49 35.7-28.53 56.65-27.24 15.59-30 34.84-56.63 44.26-88.71 7.91-40-44-22.39-61.93-8.39-28.67 19.52-51.18 49.11-64.34 82.5A113.22 113.22 0 0 1 3597.42 2097.88ZM3589.83 2157.56a21.12 21.12 0 0 1-3.38 2.14 20.68 20.68 0 0 1-4.72 9.38c6.63 1.44 12.42-1.64 18.35-7.31A22 22 0 0 1 3589.83 2157.56Z" style="fill:#69a31a"></path>
  <path d="M3659.3,2120a71.8,71.8,0,0,1,21.31,2.67c24.35-63.32-53.34-64.72-83.19-24.77,6.12,19.3,8.86,45.19-7.59,59.68,4.45,3.45,10.15,4.68,15.64,4.55C3604.47,2139.43,3628.8,2120.69,3659.3,2120Z" style="fill:#69a31a"></path>
  <path d="M3550.55,2111.43c17.74,9.48,39,26.23,35.9,48.27,15-8.33,16.93-28.5,15-44.2-3.5-28.12-21.34-56.08-44.62-72.76-17.22-12.23-47.88-24.37-63.11-4.34-10.63,19.67,2.89,43,12.5,60.75A119.31,119.31,0,0,1,3550.55,2111.43Z" style="fill:#69a31a"></path>
  <path d="M3586.45 2159.7c2.18-45.27-67.85-66.14-104.87-59.9-20.83 3-51.31 14.42-49.71 39.29C3437.06 2179.12 3575.85 2203.46 3586.45 2159.7ZM3680.61 2122.65c-30.88-10.61-77.93 9.41-75.14 39.46 2.21 51.92 110.6 49.09 109.46-3.1C3714.57 2142.33 3700.43 2128.32 3680.61 2122.65ZM3576.24 1409.77c-7.08-2.27-13.18-6.56-16-14.19-27.25-14-28.25-52.41-24.15-79.5-39.31-34.19-84.4-22.64-62.24 34.91 10.3 26.81 28.07 53.39 49.85 72.2 21.34 19.87 52.17 22.65 55.81-12.86A11.1 11.1 0 0 1 3576.24 1409.77Z" style="fill:#69a31a"></path>
  <path d="M3534.48,1345.48c1.64,18.62,7.32,42.14,25.8,50.1-9.15-30.42,33.71-53.14,55-67.5,7.44-25.6,27-73.75,6.58-95.42-22.18-14.64-49,10.2-62.2,27.67-1,11-6.28,21.54-15.49,27.67A130,130,0,0,0,3534.48,1345.48Z" style="fill:#69a31a"></path>
  <path d="M3554 1277.82c22.69-34.94-21.51-94.14-59.89-67.58-21.73 16.6-22.24 51.55-2.79 69.81C3507.59 1296.94 3540.59 1300.29 3554 1277.82ZM4124.86 1307.27c.83 15-7.27 16.83-2.55 30.12-5.36 14.11-18.6 26.87-35 19.34-5.16 19.61-6 58.84 20.75 59.75 12.4-2.37 20.72-14.58 30.35-22.8 14.22-13.42 27-24.65 43.27-37.61 19.46-15.4 40.53-31.66 55-51.93 26.22-36.92 8.77-58.06-33.36-46.12-28.08 7.18-55.66 20.7-78.17 40.47C4125.15 1301.48 4124.94 1304.43 4124.86 1307.27ZM3946.28 1345.39c18.59 30.35 73.7 63.09 109 47.83-16.92-9.69-26.8-23.34-40.69-38.12-14.46-16.74-29.52-35.06-40.37-54.86C3950.13 1301.94 3931.74 1322.77 3946.28 1345.39Z" style="fill:#69a31a"></path>
  <path d="M4070,1299.32c10,17.47,16.78,36.94,16.67,57.11,16.35,8,29.62-4.3,35.51-18.4.37-3.06-2.17-5.88-1.49-9.83,4.81-12.14,4.55-25.63,4.63-38.88a762.61,762.61,0,0,0-4.32-80c-3.27-24.2-9.4-90.11-44.85-64.73-29.52,28.45-35.46,79.35-31.34,120.9A191.19,191.19,0,0,1,4070,1299.32Z" style="fill:#69a31a"></path>
  <path d="M3993.63 1329.59c15.78 18.48 46.21 61.32 68.42 65.46 28.82-3 26.93-44.3 20.83-65.51-6.59-23.86-21.47-46.09-38.07-64-17.89-17.9-71.52-73.94-84.68-26.56C3954.62 1272.2 3974.47 1304 3993.63 1329.59ZM4743.61 1318.49c1 4.91 1.83 9.59 2.4 14.07 8.75-13.9 24-28 39.28-35.72 6.33-48.54-27-70.6-59.72-33.08C4733.64 1282.54 4739.52 1299.78 4743.61 1318.49ZM4735.33 1379.39c-.33-1.12-.59-2.29-.82-3.5-4.66 2-10.38 1.74-16.73-.64 3.11 11.9-2.31 22.9-12.8 31.59 15.24 3.37 39.57 5.41 46.61-10.94C4743.59 1393.62 4737.79 1387.82 4735.33 1379.39ZM4682.45 1346.64c-17.36-21-31.29-48-39.66-74.83-77.71-51.06-59.7 42.22-24.51 78.73C4636.29 1342.49 4663.28 1340.88 4682.45 1346.64Z" style="fill:#69a31a"></path>
  <path d="M4746,1332.56c2.62,20.31.26,38.26-11.5,43.33,2.12,16.46,18.63,23.86,33.52,20.63-5.68-31.87,38.23-40.44,65.3-39.3C4906.84,1274,4788.28,1263.43,4746,1332.56Z" style="fill:#69a31a"></path>
  <path d="M4672.32,1333.21c3.34,4.82,6.7,9.3,10.13,13.43,18.37,5.16,31.88,15.67,35.33,28.61,40.24,13.28,29.55-49.26,21.38-74.19-8.88-30-23.92-63.34-41.68-89-48.5-69.69-74.49-19.34-59.48,42C4643.93,1281.16,4656.93,1310.91,4672.32,1333.21Z" style="fill:#69a31a"></path>
  <path d="M4655.25 1423.68c86.37-5.31 82.12-82.58-3.36-80.43C4572.2 1346.12 4563.15 1424.09 4655.25 1423.68ZM4793.93 1362.41c-31.29 9.64-35 38.1-9.38 56.14 30.32 24.75 119.61 34.94 131.66-12.69-1.27-30.22-39.52-43-69.4-47.54C4829.38 1355.91 4808.31 1357.18 4793.93 1362.41ZM3638.54 1316.06c-26.15 12.79-105.19 54.17-71.55 88.9 10.4 8.58 15.49 3.91 26.84 2.6 13.09 3.49 26.05-.46 39.34-3.92C3759.53 1371.59 3820.23 1245.5 3638.54 1316.06Z" style="fill:#69a31a"></path>
  <path d="M3489.4,1710.71c6.52,16.86,19.12,34,32,44.06-19.84-48.65-23.73-111.16-10.09-161.89C3482.64,1621.49,3473,1672.85,3489.4,1710.71Z" style="fill:#c4dd5d"></path>
  <path d="M3545.57 1701.61c8.73-17.25 18.78-34.29 30.17-49.12-43.67 7.93-71.41 62.47-52.12 102.44C3528.92 1737 3536.75 1718.85 3545.57 1701.61ZM3517.56 1759.38c-24.86-4.59-41.45-28-56.76-45.3-6.72 43.68 31.93 76.05 71.28 49.45C3528.73 1762.44 3522.82 1760.92 3517.56 1759.38ZM3647.77 1696.8c-23.22-.83-43.1 20.51-59 35.76-16.11 15.09-37.33 29-52.63 42.64 26.95-1.7 60.76-13.5 77.86-37.43 11-14.06 20.45-31.81 35.26-40.88ZM4016 1797.24c.16.33-1.91-4.34-3.8-8.33a16.78 16.78 0 0 1-4.89-.3 22.89 22.89 0 0 0 3.69-2.24c-25.68-53.25-58.6-117-41.84-178.46C3920.16 1670.08 3962.88 1755 4016 1797.24ZM3981.42 1787.42c-27-20.39-53-51.56-79.7-71.62 8.41 42.3 48.54 89.62 95.74 82.22A182 182 0 0 1 3981.42 1787.42Z" style="fill:#c4dd5d"></path>
  <path d="m4008.61 1787.92-1.32.69c16.35 2.68 27.1-15 35.21-27a223.75 223.75 0 0 0 13.55-23.81 234.34 234.34 0 0 0 20.83-68c-2.26-1.14-45.3 55.66-51.24 83.59C4020.92 1765.2 4020.18 1781 4008.61 1787.92ZM4137 1773.91c-41.24.1-99.84 15.62-135.43 36.12 43.52 6.58 106.42-9.51 141.43-36.19C4143 1773.84 4140.84 1773.79 4137 1773.91ZM4775 1830.41l-.65-.31-.23.38s0-.17 0-.48c-.51-.24-2.13-1.06-2.07-1-.14 0 1.6-.32 2.13-.41.07-1.46.29-4.88.49-7.29-2.72-1.81-5.81-4-8.64-6.06.33 4.44 1.45 13.31 1.7 16.54a83 83 0 0 0 17.11 1.83A44.82 44.82 0 0 1 4775 1830.41Z" style="fill:#c4dd5d"></path>
  <path d="M4775.35 1828.35a75.15 75.15 0 0 0 7.63-1.84q-2.3-1.37-4.9-3C4777.06 1825.35 4776 1827.23 4775.35 1828.35ZM4761.76 1823.33c-8.16-14.36-8.65-20-23.06-30.84-17.42-15.75-34.43-33.79-49.78-49.39 5.44 39.43 37.43 80.92 78.64 88.62C4766.92 1830.91 4763.31 1825.72 4761.76 1823.33Z" style="fill:#c4dd5d"></path>
  <path d="M4763 1835.46a543.54 543.54 0 0 0-100-42c20 35.81 66.91 55.85 106.62 45.59C4769.8 1839.15 4764.6 1836.26 4763 1835.46ZM4766.63 1821.63a635.6 635.6 0 0 1 3.52-153.43c-36.93 45-38 117.63-2.39 163.78C4767.7 1830.9 4767 1824.61 4766.63 1821.63ZM4774.34 1830.1l-.21-.1c0 .31 0 .48 0 .48ZM4774.19 1828.56l1.16-.21c26.24-47.73 53.88-116.8 116.54-124.64-32.88-12-69.73 6.65-89.76 33.68S4775.94 1798.07 4774.19 1828.56Z" style="fill:#c4dd5d"></path>
  <path d="M4898.55 1786.22c-45.58-8.09-84 35.63-126.49 42.75 45.85 22.82 90.59-23.28 127.93-42.49ZM4761.72 2123.61c3.27 9.87 9.49 20.65 16.18 27.74a237.28 237.28 0 0 0-6.44-97.29C4757.91 2073.09 4753.64 2101.25 4761.72 2123.61ZM4778.06 2154.47c-9.42-5.65-13.83-15.57-21.86-25.56-17.47-23.26-47.58-41.78-72.41-48.21 14.67 22.06 65.69 82 96.85 75.12C4780.39 2155.69 4778.72 2154.9 4778.06 2154.47ZM4897.75 2085.1a33.54 33.54 0 0 0-.48-4.72c-20.65 27.81-68.09 37.49-79.19 73.45C4848.48 2140 4897.18 2126.75 4897.75 2085.1ZM4139.7 2150.85s-.08-.76-.25-2.15l-1.69-.16C4139 2150.05 4139.7 2150.85 4139.7 2150.85ZM4136.72 2137.64c.43.24.84.49 1.25.74a835.31 835.31 0 0 0-32-136.5c-11.63 42.5-4 92.67 19.93 130C4129.49 2133.75 4133.24 2135.67 4136.72 2137.64ZM4143 2149.25a38.29 38.29 0 0 0-1.85 6.87c2.13-1.64 4.74-3.6 7.29-5.18A24.55 24.55 0 0 0 4143 2149.25ZM4211.88 2064.09c-.21-3.32-.46-5.12-.46-5.12-17.17 27.66-46.58 56.73-66 84.9a21.89 21.89 0 0 1 4.66 6.07C4186.93 2133.93 4213.15 2106 4211.88 2064.09Z" style="fill:#c4dd5d"></path>
  <path d="M4145.41 2143.87c-17.2-13.3-38.86-20.33-57.24-32.42-14.13-8.44-27.54-21.51-40.87-28.88 9.68 30.66 31.29 57.76 65.26 63.29 13 3.59 26.78.09 38.48 6.42A20.68 20.68 0 0 0 4145.41 2143.87ZM3595.66 2107.48c6.93-28.71 14-61.49 31.64-85.24-50.16 16.87-58.72 83.21-43.08 126.59C3588.42 2137.29 3592.25 2121.56 3595.66 2107.48ZM3578.63 2157.56a645.74 645.74 0 0 1-70.87-112.63c-7.52 46 20.46 95.85 62.55 113.43l-1.35.4a105.5 105.5 0 0 0 15.4 5.92C3584.61 2164.93 3580.08 2159.23 3578.63 2157.56Z" style="fill:#c4dd5d"></path>
  <path d="M3556.48 2150.75c-22.32-12.67-64.89-13.92-86.19-5 25 16.65 70.88 22.74 100 12.6A102.7 102.7 0 0 0 3556.48 2150.75ZM3669.35 2160.9c-24.49-2.93-50.46-6.3-74.69-10.46 11.16 31.33 59.16 37.93 78.37 10.79C3673 2161.23 3671.64 2161.06 3669.35 2160.9ZM3604.43 2149.14c18.82 1.21 39.72-13.72 43.81-33.2 2.08-8.53.77-19 8.25-24.08-14.21-4.34-23.14 14.72-31 23.67-9.9 11.8-22.34 23.37-35.69 30.09A36.68 36.68 0 0 0 3604.43 2149.14ZM4770 1372.28c34.53-7.67 53.93-34.18 50.92-69.35C4785.42 1307.34 4763.61 1337.13 4770 1372.28ZM4870.82 1400.53c-20.2-36.64-74.13-43.34-102.71-13.12 34.44 18.63 66.52 24 105.14 17.71A50.4 50.4 0 0 0 4870.82 1400.53ZM4718.31 1373.84c-36-8.75-69.52 32.89-52.52 66 11.75-24.63 33.7-49.82 56.48-64.83A35.09 35.09 0 0 0 4718.31 1373.84ZM4736.86 1374.79c-12.24 17.94-8.78 45.29 7.26 59.61C4756.37 1416.46 4752.9 1389.11 4736.86 1374.79ZM4678.49 1352.41c5.95.26 14.09.38 19.37 0-16.56-25.29-54.85-33.33-80.19-16.85C4635.91 1344.83 4657.68 1352 4678.49 1352.41ZM4715.77 1339.24c2.24-23.81-16.85-55.15-38.68-64.15C4674.86 1298.9 4693.94 1330.23 4715.77 1339.24ZM4772 1261.2c1.67-6.92 3.88-16 5-22.27-31.38 17.11-46.35 60.14-32.37 93C4755.9 1310.23 4766.42 1285.34 4772 1261.2ZM4105.32 1340.92c25.32-48.25 86.76-75.48 111.25-124.07C4171.17 1244.34 4104.11 1278.35 4105.32 1340.92ZM4224 1334.26c-37.79-21.71-90.59-14.82-121.39 16 12.38 1.82 25.23-2.7 38.07-3.31 28.54-3.1 59.75-7.26 88-9.94C4228.66 1337.06 4227 1336 4224 1334.26Z" style="fill:#c4dd5d"></path>
  <path d="M4102.59 1350.31a50 50 0 0 0-9.53-.65 282.14 282.14 0 0 0 52.57 61.3C4151.3 1383.74 4130.24 1354.12 4102.59 1350.31ZM4072.7 1342.71c-27.49-12.43-70.58 7.85-60.44 41.75 14.57-23.12 50.66-24.93 73.64-35.61A75.23 75.23 0 0 0 4072.7 1342.71ZM4024.28 1292.68c17.41 17.35 37.36 34 56.58 49.1 4.8-32.07-29.58-62-60.69-52.89C4020 1288.81 4023.21 1291.78 4024.28 1292.68ZM4081.46 1243c-1.1-1.35-1.83-2.07-1.83-2.07a45.24 45.24 0 0 0-3.38 54.39C4092.38 1283.6 4095.31 1257.76 4081.46 1243ZM3735.53 1300.63c-50.49-15.66-111.55 13.28-131 62.31a394.48 394.48 0 0 1 137.06-60.33S3739.47 1301.83 3735.53 1300.63ZM3571.39 1385.89c-2.79-33.92-29.61-65.79-62.49-74a924.06 924.06 0 0 0 62.4 91.68A80.1 80.1 0 0 0 3571.39 1385.89ZM3532.12 1288.89a76.07 76.07 0 0 0 13.46 2.86c-10.83-23.7-35.78-43.44-47.56-66.4C3483.33 1250.11 3506.39 1283.17 3532.12 1288.89Z" style="fill:#c4dd5d"></path>
  <path d="M5023.23,2175.79H3123.78a113.21,113.21,0,0,0,32.82,79.86H4990.42A113.25,113.25,0,0,0,5023.23,2175.79Z" style="fill:#e8e3e3"></path>
  <path d="M3156.6,2255.65a113.24,113.24,0,0,0,80.8,33.76H4909.61a113.28,113.28,0,0,0,80.81-33.76Z" style="fill:#a8908e"></path>
  <path d="M5023.23,1795.45H3123.78a113.28,113.28,0,0,0,34.44,81.47H4988.8A113.32,113.32,0,0,0,5023.23,1795.45Z" style="fill:#e8e3e3"></path>
  <path d="M3158.22,1876.92a113.24,113.24,0,0,0,79.18,32.15H4909.61a113.28,113.28,0,0,0,79.19-32.15Z" style="fill:#a8908e"></path>
  <path d="M5023.23,1399.15v-1.23H3123.78v1.23a112,112,0,0,0,29.58,76H4993.65A112,112,0,0,0,5023.23,1399.15Z" style="fill:#e8e3e3"></path>
  <path d="M3153.36,1475.13a112.1,112.1,0,0,0,82.81,36.41H4910.84a112.07,112.07,0,0,0,82.81-36.41Z" style="fill:#a8908e"></path>
  <path d="M3192.43 302.37c-112.47 28.36-198.68 134.91-209.32 250.4s51.29 233 149.18 295.25 226.72 69.45 333.8 24.86 191.15-138 231-247c24.61-67.25 32.37-145.08-.58-208.66-21.16-40.83-62.95-72.64-108.37-81-35.43-6.51-63.73 9.9-98 10-47.76.18-94.5-30.89-140.77-41.74C3297.85 292.49 3244.08 289.35 3192.43 302.37ZM2274.72 787.93c-28.73 50.63-44.94 113.1-23.34 167.15 14.64 36.64 45.24 65.24 79.86 84.15 103.22 56.37 242.69 25.46 320.83-62.43 66.77-75.11 136.15-315.55 6.07-366.14C2522.89 558.06 2338.83 675 2274.72 787.93ZM1257.45 2067.25c-12.25 46.16 3.67 100.52 43.41 127s101.34 16.88 125.79-24.14c13.28-22.29 14.82-49.49 14.54-75.42-.51-46.83-9.46-121.72-67.55-130.69C1319.85 1955.69 1269.37 2022.32 1257.45 2067.25Z" style="fill:#a0d5fd"></path>
  <path d="M3323.23,3652.24c-312.8,97.65-525.29,73.72-648.26,36.68L2510.4,3389.3S2240.34,3234.51,2174.47,2948,2573,2639.6,2573,2639.6L2812,2945.75a554.88,554.88,0,0,1-17.77-53.21c-47.22-170.9,30-254.36,51.67-329.73l342.21,88.65c28.2,97.62,35.28,236.61-56.95,392.86.15.65.31,1.28.47,1.93C3198.52,3326.83,3274.62,3534.25,3323.23,3652.24Z" style="fill:#f8877f"></path>
  <rect width="13.86" height="132.06" x="1575.73" y="1697.32" style="fill:#93c74b" transform="rotate(-72.46 1582.548 1763.326)"></rect>
  <rect width="13.86" height="173.93" x="1902.22" y="1437.16" style="fill:#93c74b" transform="rotate(-18.77 1909.253 1524.189)"></rect>
  <rect width="154.89" height="13.86" x="2436.28" y="1468.72" style="fill:#93c74b" transform="rotate(-51.73 2513.554 1475.643)"></rect>
  <rect width="289.57" height="13.86" x="2581.57" y="1814.03" style="fill:#93c74b" transform="rotate(-22.74 2725.975 1820.81)"></rect>
  <rect width="888.05" height="1640.09" x="1841.61" y="1523.8" rx="167.38" style="fill:#023240" transform="rotate(-19.26 2285.9 2344.053)"></rect>
  <rect width="817.91" height="1561.05" x="1876.68" y="1563.32" rx="139.97" style="fill:#f6ffd1" transform="rotate(-19.26 2285.9 2344.053)"></rect>
  <circle cx="2538.39" cy="3039.47" r="27.99" style="fill:#023240"></circle>
  <rect width="59.28" height="139.97" x="1857.41" y="1880.25" style="fill:#93c74b" transform="rotate(-19.26 1887.28 1950.395)"></rect>
  <rect width="59.28" height="59.28" x="1991.97" y="1916.31" style="fill:#93c74b" transform="rotate(-19.26 2021.85 1946.125)"></rect>
  <rect width="59.28" height="154.79" x="2097.47" y="1781.11" style="fill:#93c74b" transform="matrix(.94 -.33 .33 .94 -494.02 805.75)"></rect>
  <rect width="59.28" height="196.78" x="2211.79" y="1697.92" style="fill:#93c74b" transform="rotate(-19.26 2241.692 1796.467)"></rect>
  <rect width="59.28" height="219.01" x="2329.37" y="1633.94" style="fill:#93c74b" transform="rotate(-19.26 2359.286 1743.6)"></rect>
  <rect width="817.91" height="99.62" x="1750.24" y="1932.22" style="fill:#fde81d" transform="rotate(-19.26 2159.458 1982.207)"></rect>
  <rect width="190.19" height="190.19" x="1930.89" y="2162.87" rx="51.87" style="fill:#fde81d" transform="rotate(-19.26 2026.234 2258.157)"></rect>
  <rect width="190.19" height="190.19" x="2006.67" y="2379.72" rx="51.87" style="fill:#fde81d" transform="rotate(-19.26 2102.028 2475.046)"></rect>
  <rect width="177.84" height="33.24" x="2165.33" y="2078.45" style="fill:#93c74b" transform="rotate(-19.26 2254.537 2095.26)"></rect>
  <rect width="355.68" height="33.24" x="2186.24" y="2123.2" style="fill:#93c74b" transform="rotate(-19.26 2364.362 2139.998)"></rect>
  <rect width="76.57" height="33.24" x="2219.95" y="2243.32" style="fill:#93c74b" transform="rotate(-19.26 2258.516 2260.13)"></rect>
  <rect width="218.6" height="33.24" x="2239.97" y="2288.58" style="fill:#93c74b" transform="rotate(-19.26 2349.544 2305.406)"></rect>
  <rect width="303.81" height="33.24" x="2263.48" y="2348.61" style="fill:#93c74b" transform="rotate(-19.26 2415.665 2365.434)"></rect>
  <rect width="355.68" height="33.24" x="2287.91" y="2414.13" style="fill:#93c74b" transform="rotate(-19.26 2466.06 2430.95)"></rect>
  <rect width="703.05" height="476.71" x="2083.63" y="2533.36" rx="44.73" style="fill:#93c74b" transform="rotate(-19.26 2435.452 2771.968)"></rect>
  <path d="M2339.17,2698a79.77,79.77,0,1,1-8.49-17.29A79.49,79.49,0,0,1,2339.17,2698Z" style="fill:#52a756"></path>
  <path d="M2339.17,2698a79.49,79.49,0,0,1,3.12,41l-78.52-14.66s11.71-43.19,19.71-77.4a79.77,79.77,0,0,1,55.69,51.06Z" style="fill:#fe4775"></path>
  <path d="M2539.69,2627.87l.08-79.88a79.84,79.84,0,1,0,67.83,37.83Z" style="fill:#52a756"></path>
  <path d="M2607.6,2585.82c-.33-.53-.65-1.06-1-1.58a80,80,0,0,0-66.84-36.25l-.08,79.88Z" style="fill:#fe4775"></path>
  <polygon points="2380.05 2896.55 2291.76 2835.83 2260.51 2938.33 2299.68 2924.64 2326.57 3001.59 2367.76 2987.19 2340.87 2910.24 2380.05 2896.55" style="fill:#fe4775"></polygon>
  <polygon points="2544.59 2833.82 2632.88 2894.54 2664.13 2792.05 2624.96 2805.73 2598.07 2728.79 2556.88 2743.18 2583.76 2820.13 2544.59 2833.82" style="fill:#f6ffd1"></polygon>
  <g style="opacity:.5">
    <path d="m2416.38 1541.66-475.1 1056.45-113.22-324 337.2-715 116.82-40.82A139.82 139.82 0 0 1 2416.38 1541.66ZM2728.83 2372.44l-394.36 781.15-45.28 15.83a140 140 0 0 1-178.3-86l-103.09-295 506.5-1029.88Z" style="fill:#fff"></path>
    <path d="M2416.38,1541.66l-475.1,1056.45-113.22-324,337.2-715,116.82-40.82A139.82,139.82,0,0,1,2416.38,1541.66Z" style="fill:#fff;opacity:.4"></path>
    <path d="M2728.83,2372.44l-394.36,781.15-45.28,15.83a140,140,0,0,1-178.3-86l-103.09-295,506.5-1029.88Z" style="fill:#fff;opacity:.3"></path>
  </g>
  <path d="m1788 2252.84-43.72 26.67a44.19 44.19 0 0 0-18.92 51.72l16 47.95a44.22 44.22 0 0 0 56.92 27.61l52.35-18.85a44.21 44.21 0 0 0 25.47-59.44l-24.61-55.77A44.21 44.21 0 0 0 1788 2252.84ZM1803.92 2577.58l20 63.68a52.28 52.28 0 0 0 67.28 33.64l47.47-16.75a52.28 52.28 0 0 0 32.19-65.83l-19.35-58.05a52.28 52.28 0 0 0-61.38-34.4L1842 2511A52.27 52.27 0 0 0 1803.92 2577.58ZM1901 2871.35l18.67 48.68a52.27 52.27 0 0 0 67.1 30.25l39.93-14.91a52.27 52.27 0 0 0 31-66.48l-17.56-49.38a52.27 52.27 0 0 0-67.83-31.35l-41 15.62A52.27 52.27 0 0 0 1901 2871.35ZM2016.12 3090.55l4.7 12.3a52.28 52.28 0 0 0 62.78 31.71l5.26-1.46a52.28 52.28 0 0 0 34.69-69.54l-4.78-12.12a52.28 52.28 0 0 0-61.13-31.6l-5.19 1.28A52.28 52.28 0 0 0 2016.12 3090.55ZM3117.61 2505.86s-384.09-457-415-487.83-45.7 0-45.7 0-101.27 105-29.64 240.83S2850.85 2533 2850.85 2538a137.3 137.3 0 0 1-4.92 24.84l342.22 88.65C3162 2560.83 3117.61 2505.86 3117.61 2505.86Z" style="fill:#f8877f"></path>
  <path d="M2698.94,2038.7s-55.57,28.41,0,112.39S2806.39,2224,2806.39,2224l31.4-34Z" style="fill:#fff"></path>
  <path d="M3131.19 3044.32s-19.76 126.89-130.91 154.06c96.33 24.7 151.72-70 151.72-70ZM2510.4 3389.3s111.35 11 168-45.6c0 89.33-148.41 81.21-148.41 81.21Z" style="fill:#ea716e"></path>
  <circle cx="3123.78" cy="1681.79" r="276.64" style="fill:#fff;stroke:#93c74b;stroke-miterlimit:10;stroke-width:13.86px"></circle>
  <circle cx="2698.94" cy="1174.61" r="276.64" style="fill:#fff;stroke:#93c74b;stroke-miterlimit:10;stroke-width:13.86px"></circle>
  <circle cx="2698.94" cy="1174.61" r="226.42" style="fill:#daeefd"></circle>
  <circle cx="3123.78" cy="1681.79" r="226.42" style="fill:#daeefd"></circle>
  <path d="M2785.39,1225.62a86.45,86.45,0,1,1-172.9,0c0-47.74,86.45-174.75,86.45-174.75S2785.39,1177.88,2785.39,1225.62Z" style="fill:#75bee9"></path>
  <circle cx="1801.5" cy="1174.61" r="276.64" style="fill:#fff;stroke:#93c74b;stroke-miterlimit:10;stroke-width:13.86px"></circle>
  <circle cx="1801.5" cy="1174.61" r="226.42" style="fill:#daeefd"></circle>
  <circle cx="1253.41" cy="1668.2" r="276.64" style="stroke:#93c74b;stroke-miterlimit:10;stroke-width:13.86px;fill:#daeefd"></circle>
  <circle cx="1253.41" cy="1668.2" r="226.42" style="fill:#fff"></circle>
  <path d="M1309.69,1647.87c-1.63.67-3.2,1.41-4.75,2.2.14-1.39.24-2.79.28-4.2,1.41-44.61-45.77-99.1-45.77-99.1s-49.45,51.45-50.86,96a64.84,64.84,0,0,0,.72,11.69,66.19,66.19,0,0,0-12.17-6.64c-41.26-17-93.13,13.88-93.13,13.88s15,58.48,56.27,75.5c38.53,15.88,86.3-10,92.46-13.5,1,.89,1.62,1.36,1.62,1.36l.94-.68c9.65,5.28,54.63,27.92,91.24,12.82,41.26-17,56.28-75.5,56.28-75.5S1350.94,1630.86,1309.69,1647.87Z" style="fill:#75bee9"></path>
  <path d="M3108,1730.24V1561.15a31.86,31.86,0,0,0-31.86-31.87h0a31.87,31.87,0,0,0-31.87,31.87v169.09a56.9,56.9,0,1,0,88.77,47.15C3133,1757.77,3123.1,1737.55,3108,1730.24Z" style="fill:#fff"></path>
  <rect width="83.65" height="26.46" x="3144.7" y="1610.94" rx="10.84" style="fill:#6dbffd"></rect>
  <rect width="83.65" height="26.46" x="3144.7" y="1668.56" rx="10.84" style="fill:#6dbffd"></rect>
  <path d="M3089.33,1747.41v-69.93h-26.41v69.93a34.15,34.15,0,1,0,26.41,0Z" style="fill:#52a756"></path>
  <path d="M3089.33,1584a13.21,13.21,0,1,0-26.41,0v93.45h26.41Z" style="fill:#8ac6e9"></path>
  <circle cx="1801.5" cy="1174.61" r="61.11" style="fill:#fe4775"></circle>
  <path d="m1871 1110.65 22.14-22.14c6-6-3.29-15.26-9.28-9.28l-22.13 22.14C1855.74 1107.35 1865 1116.63 1871 1110.65ZM1829.69 1084.52q4.07-15.12 8.11-30.24c2.19-8.17-10.47-11.65-12.66-3.49L1817 1081C1814.85 1089.2 1827.51 1092.68 1829.69 1084.52ZM1768.19 1085.89c2.19 8.15 14.85 4.69 12.66-3.49q-4-15.12-8.11-30.24c-2.18-8.15-14.84-4.69-12.65 3.49ZM1728.26 1114.39c6 6 15.26-3.3 9.28-9.28L1715.4 1083c-6-6-15.26 3.29-9.28 9.27ZM1677.68 1151l30.24 8.11c8.17 2.19 11.65-10.47 3.49-12.66l-30.24-8.1C1673 1136.12 1669.52 1148.78 1677.68 1151ZM1709.29 1195.26l-30.24 8.1c-8.15 2.19-4.69 14.85 3.49 12.66l30.24-8.11C1720.93 1205.73 1717.47 1193.07 1709.29 1195.26ZM1732 1238.57l-22.13 22.14c-6 6 3.29 15.26 9.27 9.27l22.14-22.13C1747.26 1241.87 1738 1232.59 1732 1238.57ZM1773.3 1264.7l-8.1 30.24c-2.19 8.17 10.47 11.65 12.65 3.49q4.07-15.12 8.11-30.24C1788.15 1260 1775.49 1256.54 1773.3 1264.7ZM1834.81 1263.33c-2.19-8.15-14.85-4.69-12.66 3.49q4 15.12 8.11 30.24c2.18 8.15 14.84 4.69 12.65-3.49ZM1874.74 1234.83c-6-6-15.26 3.29-9.28 9.27l22.14 22.14c6 6 15.26-3.29 9.27-9.28ZM1925.32 1198.25l-30.24-8.1c-8.17-2.19-11.65 10.47-3.49 12.65l30.24 8.11C1930 1213.09 1933.48 1200.44 1925.32 1198.25ZM1893.71 1154l30.24-8.11c8.15-2.18 4.69-14.84-3.49-12.65l-30.24 8.1C1882.07 1143.49 1885.53 1156.15 1893.71 1154Z" style="fill:#fe4775"></path>
  <path d="M4266.21 2657.67c-107.64 276.09-352.18 472.29-594.33 630h28.22c172.33-111.41 333.09-244.83 458.81-407.63 50.32-66.36 93.67-138.83 121.49-217.59A61 61 0 0 1 4266.21 2657.67ZM3974.46 3141.31c-115.15-10.13-127.29 109.06-12.47 122.36C4077.14 3273.8 4089.27 3154.6 3974.46 3141.31Z" style="fill:#69a31a"></path>
  <path d="M4089.89 3016.43c-94.72.67-95.77 120.66-1.09 123C4183.52 3138.75 4184.57 3018.77 4089.89 3016.43ZM4297.71 2910c-21.8-23.69-58.95-29.33-90-24.62-40.18 4.74-70 40.58-30.59 70.76 22.28 16.88 56.64 21.85 84.18 15.55C4290.65 2966.34 4323.91 2938.34 4297.71 2910ZM4382.38 2766.49c-13.26-42.9-66.59-55.46-104.89-39-55.66 22.19-38.86 75.24 9.76 91.95C4322.06 2831.31 4391.35 2813.45 4382.38 2766.49ZM4280.4 2662.44c42 9.66 77.93-35.11 69-75-7.64-45-61.23-60.09-96-34.64C4206.45 2583.18 4229.84 2652.43 4280.4 2662.44ZM4197.69 2750c58.28-38-19.62-157.72-78-119.82S4139.35 2787.94 4197.69 2750ZM4029.24 2843.56c4.63 23.06 21 47.08 41.61 58.51 25.58 15.95 57.52 5.93 59.6-26.45 2.71-37.58-23.25-78.91-60.48-88.48C4036.93 2779.32 4021.94 2816.3 4029.24 2843.56ZM3942.11 2998.62c15.95 37.9 60 52.17 76.55 7.28 14.41-37.21-.3-110.55-47.45-113.39-21.38.57-35.53 26.4-37.89 48C3930.56 2958.73 3934.08 2982 3942.11 2998.62ZM3885.8 3134.64c17.41-23.37 18.89-58 11-85.51-9.16-37.19-47.72-63.38-73.32-23-14.58 23.09-15.86 57.39-6.7 83.14C3826.31 3141.37 3862.07 3166.23 3885.8 3134.64ZM4955.06 2853a48.56 48.56 0 0 1-10.67-5.26c-107 193.07-301.21 318-496 414h28.17c131.1-65.79 255.29-147.24 359.74-250.36C4883 2964.49 4924.79 2912.06 4955.06 2853ZM4663.37 3197.44c-89.56-20.21-111.78 72.32-22.82 95C4730.11 3312.64 4752.33 3220.11 4663.37 3197.44Z" style="fill:#69a31a"></path>
  <path d="M4767.49 3111.41c-74.62-9.53-88.2 84.8-13.92 96.69C4828.2 3217.64 4841.77 3123.31 4767.49 3111.41ZM4942.39 3049.7c-14.64-21-43.29-29.35-68.21-28.94-32.13-.54-59.42 24.5-31.6 52.44 15.75 15.66 42.26 23.22 64.61 21.19C4930.84 3093.31 4960 3074.81 4942.39 3049.7ZM5024.28 2945.76c-5.88-35.18-46.53-50.73-78.43-41.82-46.17 11.56-38.58 55.1-2.08 73.42C4969.91 2990.37 5026.34 2983.67 5024.28 2945.76ZM4955.06 2853c32 12.07 65.07-19.35 62.27-51.68-1.22-36.25-41.8-53.81-71.88-37.47C4905.28 2782.78 4916.33 2839.77 4955.06 2853ZM4880.65 2913.19c49.91-23.71 1.32-126.23-48.63-102.6S4830.7 2936.82 4880.65 2913.19ZM4738.12 2968.9c1.2 18.64 11.51 39.28 26.54 50.48 18.44 15.27 44.65 10.77 49.72-14.49 6.13-29.3-9.91-64.59-38.2-76.07C4751 2919.15 4735.27 2946.66 4738.12 2968.9ZM4653.07 3081.7c8.52 31.52 41.7 47.43 59.48 13.86 15.3-27.76 11.51-87-25.3-94.3-16.89-1.82-30.77 17-34.92 33.73C4648.22 3049.07 4648.51 3067.75 4653.07 3081.7ZM4594.3 3182.78c16.18-16.55 21-43.63 17.75-66.14-3.27-30.25-30.83-55-55.27-25.9-13.93 16.63-18.58 43.49-14.11 64.73C4546.75 3181.75 4572.26 3205.11 4594.3 3182.78Z" style="fill:#69a31a"></path>
  <path d="M3464.87,3294.62S3268.11,3200.45,3289.5,2946c171.09-25.66,382.38,341.71,382.38,341.71Z" style="fill:#588a16"></path>
  <path d="M3614.48,3289.62s-322.69-408.5-144.19-726.81C3548.27,2753.48,3811,3283,3811,3283Z" style="fill:#69a31a"></path>
  <path d="M3703.67,3250a1002.8,1002.8,0,0,1-68.81-97.92c-11.82-19.14-23.56-39.62-34.93-61.27-5.72-10.8-11.24-22-16.75-33.3-2.69-5.71-5.42-11.45-8.08-17.27s-5.32-11.69-7.86-17.65c-5.23-11.86-10-23.74-14.7-35.46-4.54-11.78-9-23.41-13-35-8.18-23-15.16-45.61-21.27-67.28a1053.26,1053.26,0,0,1-25.71-116.93c-5.41-33.74-8.06-61.36-9.35-80.48s-1.25-29.78-1.25-29.78-1.26,10.57-1.76,29.84a715.9,715.9,0,0,0,2.81,81.61,844.9,844.9,0,0,0,19.54,119.81c5.33,22.26,11.71,45.47,19.55,69.15,3.84,11.87,8.17,23.8,12.68,35.87s9.47,24.18,14.81,36.29c2.58,6.09,5.37,12.05,8.07,18s5.59,11.76,8.39,17.56c5.76,11.53,11.58,22.82,17.65,33.72,12.07,21.84,24.7,42.34,37.5,61.34a813.49,813.49,0,0,0,75.15,95.36c10.36,11.3,20.14,21.33,29.07,30.13H3734C3724.86,3275.88,3714.64,3263.74,3703.67,3250Z" style="fill:#bcd845"></path>
  <path d="M3521.06,3248.41a733.08,733.08,0,0,1-67.72-66.84l-4.22-4.69-4.06-4.77-8.08-9.44q-3.89-4.78-7.7-9.51c-1.28-1.57-2.56-3.13-3.82-4.69s-2.45-3.17-3.67-4.74l-7.24-9.37c-2.35-3.13-4.61-6.28-6.89-9.36l-3.4-4.61c-1.13-1.52-2.17-3.1-3.26-4.63l-6.39-9.11c-8.2-12.16-15.89-23.83-22.6-35.06-3.47-5.55-6.55-11.07-9.65-16.31-1.51-2.63-2.93-5.25-4.37-7.8s-2.83-5-4.12-7.5-2.6-4.87-3.86-7.21l-3.55-6.9c-2.34-4.46-4.36-8.76-6.35-12.74-3.82-8-7.06-15-9.53-20.75s-4.34-10.28-5.55-13.37-1.8-4.73-1.8-4.73.29,1.73,1,5,1.83,8,3.51,14.12,3.9,13.51,6.72,22.06c1.49,4.24,3,8.82,4.82,13.58l2.78,7.37,3.1,7.71c1,2.64,2.19,5.3,3.37,8s2.37,5.52,3.64,8.34c2.63,5.61,5.25,11.52,8.3,17.47,5.85,12,12.81,24.51,20.46,37.48l6,9.73c1,1.63,2,3.3,3.11,4.92s2.16,3.26,3.25,4.9c2.19,3.28,4.37,6.62,6.66,9.93l7.1,9.92c1.21,1.66,2.39,3.35,3.64,5l3.8,4.94,7.74,10,8.2,9.84,4.16,5,4.35,4.85a507.94,507.94,0,0,0,117.53,97.68h20.56C3560.1,3280.05,3540.93,3265.6,3521.06,3248.41Z" style="fill:#c4dd5d"></path>
  <path d="M3839.84,3285.36s149.1-292.53,457.66-227.63c-35.64,154.12-181.14,215-181.14,215Z" style="fill:#588a16"></path>
  <path d="M4225.94,3112.2l-8.9,1.31-5.1.77c-.89.14-1.8.26-2.71.43l-2.77.56-12.09,2.5c-1.08.21-2.16.47-3.24.75l-3.31.85-6.88,1.78a440.12,440.12,0,0,0-64.21,23.07,569.63,569.63,0,0,0-73.46,39.57,710,710,0,0,0-67.54,48.62c-19.87,16.08-37,31.46-50.88,44.83q-2.38,2.28-4.63,4.47h14.71c14.54-10.77,31.61-23.1,50.56-36.33,20.64-14.44,43.6-29.84,68.06-45.32s48.21-29.45,70.3-41.24a657.09,657.09,0,0,1,60.15-28.55l6.46-2.59,3.11-1.25c1-.42,2-.82,3.05-1.16l11.4-4.11,2.63-1c.86-.3,1.72-.55,2.56-.82l4.84-1.52,8.5-2.72c10.32-2.78,16.09-4.4,16.09-4.4S4236.72,3111.17,4225.94,3112.2Z" style="fill:#c4dd5d"></path>
  <path d="M4408.75,3264.28s-104.46-242,78.37-347.58c104.68,220.19,25.64,345.9,25.64,345.9Z" style="fill:#588a16"></path>
  <path d="M4458.82,3157.41c0-3.16,0-6.3.07-9.41s.15-6.22.23-9.3c0-1.54.05-3.07.11-4.59s.13-3.05.19-4.57q.18-4.54.35-9c.68-11.92,1.33-23.43,2.34-34.39,1.83-21.93,4.36-41.67,6.78-58.25,4.9-33.16,9.68-53.61,9.68-53.61s-2.32,4.71-5.89,13.51-8.35,21.7-13.18,38a484.12,484.12,0,0,0-13.5,58.29c-1.94,11.12-3.38,22.9-4.6,35.14q-.36,4.61-.72,9.29c-.12,1.56-.23,3.12-.34,4.7s-.16,3.16-.24,4.74q-.19,4.77-.4,9.61c-.1,3.22-.09,6.47-.12,9.74-.13,6.53.14,13,.32,19.36.06,3.19.34,6.34.52,9.47s.44,6.23.65,9.31.64,6.11,1,9.13.58,6,1.06,8.93.86,5.84,1.28,8.71c.22,1.44.43,2.87.65,4.28s.51,2.82.76,4.21q.81,4.18,1.59,8.25c.26,1.35.52,2.7.78,4s.62,2.65.92,4c.62,2.61,1.24,5.18,1.84,7.72s1.17,5,1.91,7.43c.19.69.38,1.36.58,2h13A642.78,642.78,0,0,1,4458.82,3157.41Z" style="fill:#c4dd5d"></path>
  <path d="M1936.75 2609.49c-3.26-34.75-25.62-69.55-57.48-83.39 23.16 35.94 42.75 78.58 53.21 120.37C1936.46 2636 1937.91 2621.18 1936.75 2609.49ZM2020.69 2892.74c-2.09-32.68-21.74-67.73-50.34-83.31 17.84 36.85 34.79 79.05 45.83 118.74C2020 2918.07 2021.53 2904.15 2020.69 2892.74ZM1841.58 2345.22c-4.79-27.59-26.19-53.83-52.27-63.37a728.17 728.17 0 0 1 51 100.59C1843.55 2371.36 1843.94 2357.13 1841.58 2345.22ZM2086.1 3066.13c-5.28-11.83-13.12-19.36-23.18-23.35-.31 21.59 7.95 40.25 21.87 56.44C2090.06 3089.41 2090.6 3078.36 2086.1 3066.13Z" style="fill:#ea716e"></path>
</svg>
